# xmcd
#
# Track frame offsets:
# 150
# 17988
# 30792
# 56589
# 67777
# 83438
# 111803
# 125695
# 137648
# 148071
#
# Disc length: 2146 seconds
#
# Revision: 0
# Processed by: cddbd v1.5.2PL0 Copyright (c) Steve Scherf et al.
# Submitted via: Audion 3.0.2 (http://www.panic.com/audion/)
#
DISCID=7d08600a
DTITLE=Duke Ellington - Ellington Showcase
DYEAR=1900
DGENRE=
TTITLE0=Harlem Air Shaft
TTITLE1=Serious Serenade
TTITLE2=Clarinet Melodrama
TTITLE3=Blossom
TTITLE4=Theme For Trambean
TTITLE5=Gonna Tan Your Hide
TTITLE6=Falling Like A Raindrop
TTITLE7=La Virgen De La Macarena
TTITLE8=Don't Ever Say Goodbye
TTITLE9=Big Drag
EXTD=
EXTT0=
EXTT1=
EXTT2=
EXTT3=
EXTT4=
EXTT5=
EXTT6=
EXTT7=
EXTT8=
EXTT9=
PLAYORDER=
